<?xml version="1.0" encoding="UTF-8" standalone="no"?>
<svg
   height="128"
   width="128"
   version="1.1"
   id="svg7"
   sodipodi:docname="icon.svg"
   inkscape:version="1.4 (e7c3feb100, 2024-10-09)"
   xmlns:inkscape="http://www.inkscape.org/namespaces/inkscape"
   xmlns:sodipodi="http://sodipodi.sourceforge.net/DTD/sodipodi-0.dtd"
   xmlns="http://www.w3.org/2000/svg"
   xmlns:svg="http://www.w3.org/2000/svg">
  <defs
     id="defs7" />
  <sodipodi:namedview
     id="namedview7"
     pagecolor="#ffffff"
     bordercolor="#000000"
     borderopacity="0.25"
     inkscape:showpageshadow="2"
     inkscape:pageopacity="0.0"
     inkscape:pagecheckerboard="0"
     inkscape:deskcolor="#d1d1d1"
     inkscape:zoom="4.6624853"
     inkscape:cx="88.364889"
     inkscape:cy="104.66521"
     inkscape:window-width="1872"
     inkscape:window-height="1052"
     inkscape:window-x="0"
     inkscape:window-y="0"
     inkscape:window-maximized="1"
     inkscape:current-layer="svg7" />
  <rect
     x="2"
     y="2"
     width="124"
     height="124"
     rx="14"
     fill="#363d52"
     stroke="#212532"
     stroke-width="4"
     id="rect1" />
  <g
     transform="scale(.101) translate(122 122)"
     id="g7">
    <g
       fill="#fff"
       id="g4">
      <path
         d="M105 673v33q407 354 814 0v-33z"
         id="path1" />
      <path
         fill="#478cbf"
         d="m105 673 152 14q12 1 15 14l4 67 132 10 8-61q2-11 15-15h162q13 4 15 15l8 61 132-10 4-67q3-13 15-14l152-14V427q30-39 56-81-35-59-83-108-43 20-82 47-40-37-88-64 7-51 8-102-59-28-123-42-26 43-46 89-49-7-98 0-20-46-46-89-64 14-123 42 1 51 8 102-48 27-88 64-39-27-82-47-48 49-83 108 26 42 56 81zm0 33v39c0 276 813 276 813 0v-39l-134 12-5 69q-2 10-14 13l-162 11q-12 0-16-11l-10-65H447l-10 65q-4 11-16 11l-162-11q-12-3-14-13l-5-69z"
         id="path2" />
      <path
         d="M483 600c3 34 55 34 58 0v-86c-3-34-55-34-58 0z"
         id="path3" />
      <circle
         cx="725"
         cy="526"
         r="90"
         id="circle3" />
      <circle
         cx="299"
         cy="526"
         r="90"
         id="circle4" />
    </g>
    <g
       fill="#414042"
       id="g6">
      <circle
         cx="307"
         cy="532"
         r="60"
         id="circle5" />
      <circle
         cx="717"
         cy="532"
         r="60"
         id="circle6" />
    </g>
  </g>
  <g
     id="g12">
    <path
       style="fill:#ff0000"
       d="m 25.308391,102.84215 c -0.118667,0.1424 -0.612169,0.68814 -0.750673,0.96515 -0.233013,0.46602 -0.307045,0.87598 -0.428956,1.3941 -0.535892,2.27754 -0.215645,4.64638 2.03754,5.89815 0.168275,0.0935 0.364018,0.12838 0.536195,0.21447 0.876339,0.43817 1.642471,1.05547 2.573734,1.39411 0.817265,0.29719 1.734137,0.35944 2.573735,0.53619 0.22123,0.0466 0.419337,0.1846 0.643434,0.21448 0.318894,0.0425 0.64406,-0.0201 0.96515,0 0.699696,0.0437 0.659067,0.17002 1.286868,0.10724 0.618274,-0.0618 0.536441,-0.16092 1.179628,-0.32172 0.210944,-0.0527 0.433659,-0.05 0.643434,-0.10723 0.869512,-0.23714 1.689412,-1.05039 2.359256,-1.60859 0.531317,-0.44276 1.109923,-0.94549 1.394107,-1.60858 0.05806,-0.13547 0.04918,-0.29349 0.107239,-0.42896 0.216744,-0.50574 0.51136,-0.69254 0.643433,-1.28687 0.08338,-0.3752 0.0529,-0.79923 0.107239,-1.17962 0.101083,-0.70759 0.337497,-1.40667 0.214478,-2.14478 -0.09709,-0.58257 -0.45814,-1.01379 -0.750673,-1.50135 -0.498556,-0.83093 -1.096839,-1.55402 -2.037539,-1.9303 -0.418373,-0.16735 -0.872795,-0.2515 -1.286868,-0.42896 -0.146936,-0.063 -0.277297,-0.16392 -0.428956,-0.21447 -0.135647,-0.0452 -0.288747,0.028 -0.428955,0 -1.021912,-0.20439 -2.059891,-0.21672 -3.10993,-0.32172 -0.424387,-0.0424 -0.863026,0.0471 -1.286867,0 -0.891257,-0.099 -2.875051,-0.25362 -3.753363,-0.10724 -0.5587,0.0931 -0.982326,0.55604 -1.501345,0.75067 -0.336832,0.12632 -1.292962,0.40277 -1.394106,0.85791 -0.06252,0.28134 -0.07149,0.57195 -0.107239,0.85792 z"
       id="path7" />
    <path
       style="fill:#ff0000"
       d="m 41.394232,101.44804 c 0.228271,0.58526 0.315946,1.23573 0.536195,1.82306 0.153925,0.41047 0.363452,0.67937 0.428956,1.07239 0.02367,0.14203 0.524132,2.13272 0.536194,2.14478 0.02528,0.0253 0.08196,-0.0253 0.107239,0 0.05652,0.0565 0.05072,0.15796 0.107239,0.21448 0.250312,0.25031 0.813144,-0.33775 0.965151,-0.42896 0.183086,-0.10985 0.353108,-0.10462 0.536194,-0.21448 0.73041,-0.43824 1.709384,-1.31188 2.144779,-2.03754 0.116317,-0.19386 0.130514,-0.43352 0.214478,-0.64343 0.08484,-0.21209 0.266447,-0.42235 0.321717,-0.64343 0.178046,-0.71219 0.28953,-1.41562 0.107239,-2.14478 -0.08141,-0.32565 -0.177267,-0.678449 -0.536195,-0.857913 -0.538609,-0.269304 -1.433844,-0.335217 -2.03754,-0.214478 -0.404388,0.08088 -0.778492,0.435911 -1.179628,0.536191 -0.06936,0.0173 -0.150533,-0.032 -0.214478,0 -0.09043,0.0452 -0.12778,0.16246 -0.214478,0.21448 -0.263362,0.15802 -0.664539,0.18847 -0.96515,0.42896 -0.296722,0.23737 -0.51804,0.58073 -0.857912,0.75067 -0.25777,0.12889 -0.571941,0.0715 -0.857911,0.10724"
       id="path8" />
    <path
       style="fill:#ff0000"
       d="m 42.037666,93.619597 c -0.498933,0.494713 -0.979897,1.039047 -1.394107,1.608585 -0.53695,0.738307 -1.033666,1.580293 -1.286867,2.466495 -0.01964,0.06874 0.02261,0.146654 0,0.214478 -0.06648,0.199437 -0.246397,0.417476 -0.321717,0.643434 -0.04522,0.135647 0.03468,0.290239 0,0.428956 -0.01226,0.04904 -0.09125,0.05928 -0.107239,0.107238 -0.04586,0.137595 -0.188493,0.695404 -0.107239,0.857912 0.04522,0.09041 0.158395,0.130355 0.214478,0.214475 0.163412,0.24512 0.01532,0.21959 0.321717,0.32172 0.447905,0.1493 0.797788,-0.28577 1.179629,-0.42896 0.754133,-0.282796 0.146563,0.14969 1.072389,-0.428952 0.301871,-0.188669 0.532713,-0.603625 0.750673,-0.857911 0.266849,-0.311325 0.647359,-0.614231 0.857911,-0.965151 0.386847,-0.644745 0.551009,-1.734176 0.428956,-2.466496 -0.05797,-0.347792 -0.282279,-0.952004 -0.643434,-1.072389 -0.06782,-0.02261 -0.157284,0.0429 -0.214478,0 -0.263651,-0.197739 -0.500448,-0.428956 -0.750672,-0.643434 z"
       id="path9" />
    <path
       style="fill:#ff0000"
       d="m 33.994745,91.36758 c -0.357867,1.234833 -0.537616,2.483549 -0.643434,3.753363 -0.07611,0.913337 -0.394146,1.927489 -0.107239,2.788212 0.08314,0.249433 0.316021,0.496651 0.536195,0.643434 0.785527,0.523685 1.623393,-0.122047 2.252018,-0.750673 0.187159,-0.187159 0.541398,-0.495584 0.643434,-0.750672 0.245001,-0.612503 0.395351,-2.759384 0.107238,-3.431647 -0.05077,-0.118464 -0.163707,-0.203252 -0.214477,-0.321716 -0.08294,-0.193536 -0.196281,-0.946954 -0.321717,-1.07239 -0.05055,-0.05055 -0.150533,0.03197 -0.214478,0 -0.09043,-0.04522 -0.130353,-0.158394 -0.214478,-0.214478 C 35.230012,91.61915 34.68134,91.465665 33.994745,91.36758 Z"
       id="path10" />
    <path
       style="fill:#ff0000"
       d="m 27.989364,93.619597 c 0.07019,0.948735 0.06759,1.963662 0.321717,2.895452 0.04206,0.154229 0.158346,0.279272 0.214478,0.428956 0.126951,0.338536 0.0969,0.772637 0.321717,1.072389 0.505104,0.673472 -0.09591,-0.338577 0.428955,0.536195 0.03943,0.06571 0.406492,0.558659 0.536195,0.428956 0.720125,-0.720125 0.754168,-3.618164 0.643434,-4.504036 -0.05174,-0.413906 -0.190723,-0.929518 -0.428956,-1.286867 -0.321158,-0.481737 -1.060965,-1.024483 -1.608584,-0.750673 -0.135374,0.06769 -0.408134,0.262382 -0.428956,0.428956 -0.03104,0.248292 0,0.500448 0,0.750672 z"
       id="path11" />
    <path
       style="fill:#ff0000"
       d="m 23.699806,95.657137 c -0.07646,0.829232 -0.18566,1.631024 0,2.466496 0.06777,0.304955 0.17992,0.681556 0.321717,0.96515 0.275903,0.551806 0.72748,1.588297 1.501345,1.072387 0.272137,-0.181421 0.511177,-0.312787 0.643434,-0.643431 0.143683,-0.359208 0.107239,-0.693712 0.107239,-1.072389 0,-1.11032 0.04883,-1.328997 -0.643434,-2.252018 -0.130231,-0.173641 -0.05048,-0.212382 -0.214477,-0.321717 -0.133014,-0.08868 -0.295943,-0.125802 -0.428956,-0.214478 -0.253586,-0.169057 -0.0076,-0.181265 -0.428956,-0.321717 -0.289744,-0.09658 -0.577189,0.201408 -0.857912,0.321717 z"
       id="path12" />
  </g>
</svg>
